<svg width="1097" height="422" viewBox="0 0 1097 422" fill="none" xmlns="http://www.w3.org/2000/svg" class="1280:absolute 1280:animate-scaleAnimation 1280:block 1280:duration-[0.8s] 1280:ease-in-out 1280:left-[-80%] 1280:scale-[0.85]e 1280:top-0 1280:transition-all 1280:z-[-1] hidden group-hover:scale-100 group-hover:transition-all group-hover:duration-200 group-hover:ease-in-out"><path d="M754.341 345.115C719.798 338.568 687.07 325.641 659.095 307.488C647.422 299.912 635.537 289.092 638.209 276.733C640.102 267.983 648.748 261.578 655.228 254.518C663.91 245.053 666.687 226.445 647.361 225.199C640.482 224.756 633.784 227.053 627.047 228.421C612.692 231.332 597.242 229.949 584.065 224.564C580.452 223.088 576.85 221.187 574.939 218.205C572.7 214.714 573.191 210.44 572.157 206.552C566.75 186.244 521.145 180.179 500.973 183.219C495.132 184.098 488.397 186.168 486.853 191.021C484.783 197.539 493.785 203.209 493.289 209.924C492.901 215.19 486.93 218.851 481.322 221.218C457.603 231.232 429.046 232.482 404.532 224.584C393.702 221.093 382.795 215.81 371.269 217.344C357.991 219.109 348.421 229.628 344.196 240.442C339.966 251.254 339.639 262.831 336.579 273.911C328.636 302.692 293.836 322.803 267.058 338.788C223.168 364.987 171.246 391.508 119.696 404.662C93.2725 411.405 65.6856 413.788 38.2979 416.141C34.5928 416.46 30.7795 416.771 27.2238 415.889C18.9458 413.845 14.7527 406.253 12.0093 399.343C1.80892 373.629 -1.97404 346.039 0.969164 318.878C1.2749 316.071 1.75317 313.062 4.00196 310.966C6.13723 308.968 9.41278 308.226 12.51 307.649C50.5524 300.577 90.6159 304.657 128.18 295.863C149.82 290.799 169.868 281.614 188.879 271.411C205.49 262.496 222.152 252.094 230.739 237.142C234.38 230.8 236.448 223.814 240.966 217.88C258.319 195.082 293.165 203.401 311.636 183.191C314.75 179.788 317.391 176.031 321.101 173.082C329.557 166.357 341.909 164.945 353.378 163.862C368.806 162.405 384.234 160.953 399.658 159.496C405.636 158.93 412.183 158.132 416.251 154.347C418.891 151.888 420.017 148.565 420.974 145.358C423.434 137.111 424.792 127.144 417.56 121.36C413.209 117.887 406.905 116.973 401.191 115.423C395.477 113.873 389.434 110.878 388.379 105.876C387.713 102.716 389.243 99.5108 390.932 96.6046C402.481 76.7479 423.249 61.1019 447.146 52.1124C471.042 43.1229 497.871 40.5624 523.668 43.1071C533.619 44.0869 543.639 45.8625 552.324 50.0156C581.832 64.1146 557.28 88.801 559.19 109.877C560.74 126.969 581.231 138.259 600.987 141.947C620.744 145.636 641.752 144.506 660.844 150.092C673.35 153.753 684.428 160.133 696.39 164.897C708.747 169.818 722.805 173.571 736.559 173.935C750.865 174.31 768.739 178.639 782.823 176.001C792.337 174.219 800.111 168.568 808.461 164.261C830.657 152.814 859.19 150.817 882.982 159.044C901.96 165.604 917.377 177.977 936.185 184.874C958.391 193.015 977.258 187.654 999.744 189.123C1027.6 190.936 1055.45 192.833 1083.41 193.471C1102.81 258.004 1101.41 327.158 1079.39 391.589C1076.72 399.389 1073.34 407.637 1065.67 412.561C1059.43 416.574 1051.34 417.699 1043.6 418.549C970.703 426.541 895.947 420.596 826.547 401.281C816.24 398.413 805.837 395.155 797.485 389.339C786.469 381.674 780.1 370.366 771.677 360.621C763.254 350.88 750.719 341.971 736.389 343.018L754.342 345.11L754.341 345.115Z" fill="url(#paint0_linear_4213_59781)"></path><path d="M883.424 130.601C873.894 125.53 865.08 119.251 854.453 116.04C827.869 108.015 799.154 121.018 771.086 125.006C754.418 127.375 737.422 126.507 720.671 125.16C688.827 122.599 657.207 118.326 626.072 112.377C611.741 109.638 595.871 105.483 589.303 94.4081C583.313 84.3022 587.256 71.8957 584.249 60.8434C580.78 48.077 568.088 38.2906 553.749 33.4127C539.41 28.5348 523.521 27.8761 507.975 27.9994C459.303 28.3821 406.202 37.937 374.842 69.88C369.702 75.1117 365.133 81.1821 364.529 87.9176C363.267 102.022 378.928 112.305 392.886 119.857C385.968 133.931 366.088 139.796 348.274 141.601C330.461 143.402 311.429 143.067 296.079 151.089C284.429 157.178 276.513 167.347 265.443 174.176C256.075 179.953 244.768 183.148 235.525 189.077C226.568 194.821 220.056 202.799 212.604 209.92C167.245 253.256 91.2088 261.543 23.7241 256.685C32.4907 231.906 42.3554 205.662 65.6762 188.786C72.1877 184.074 79.552 180.269 87.2066 177.041C108.037 168.258 130.876 163.739 153.475 159.29C208.761 148.413 264.047 137.531 319.329 126.654C325.466 125.446 331.903 124.112 336.606 120.525C341.74 116.61 343.923 110.681 345.289 104.986C349.069 89.2472 348.459 72.6203 355.965 57.8139C371.09 27.9812 412.847 15.6719 450.266 8.88292C492.567 1.2066 536.524 -3.73472 578.603 3.59914C585.425 4.78795 592.529 6.46925 597.32 10.7076C601.767 14.6388 603.535 20.1515 605.845 25.2442C623.291 63.7372 676.185 82.6358 725.182 83.169C774.179 83.7022 821.955 70.2108 870.392 63.1275C927.397 54.7869 986.024 55.3644 1042.42 64.8173C1043.99 65.0791 1040.79 110.695 1040.64 115.093C1040.21 127.158 1042.63 146.254 1026.78 152.852C1017.25 156.818 1004.39 152.132 994.563 151.434C976.385 150.15 958.299 150.327 940.247 147.758C920.244 144.906 900.605 139.74 883.428 130.602L883.424 130.601Z" fill="url(#paint1_linear_4213_59781)"></path><defs><linearGradient id="paint0_linear_4213_59781" x1="1.67777e-07" y1="253.326" x2="1097" y2="249.314" gradientUnits="userSpaceOnUse"><stop stop-color="#112242" stop-opacity="0"></stop><stop offset="0.5" stop-color="#112242"></stop><stop offset="1" stop-color="#112242" stop-opacity="0"></stop></linearGradient><linearGradient id="paint1_linear_4213_59781" x1="1.67777e-07" y1="253.326" x2="1097" y2="249.314" gradientUnits="userSpaceOnUse"><stop stop-color="#112242" stop-opacity="0"></stop><stop offset="0.5" stop-color="#112242"></stop><stop offset="1" stop-color="#112242" stop-opacity="0"></stop></linearGradient></defs></svg>